<?xml version="1.0" encoding="UTF-8" standalone="no"?>
<!DOCTYPE svg PUBLIC "-//W3C//DTD SVG 1.1//EN" "http://www.w3.org/Graphics/SVG/1.1/DTD/svg11.dtd">
<svg width="100%" height="100%" viewBox="0 0 1774 1961" version="1.1" xmlns="http://www.w3.org/2000/svg" xmlns:xlink="http://www.w3.org/1999/xlink" xml:space="preserve" xmlns:serif="http://www.serif.com/" style="fill-rule:evenodd;clip-rule:evenodd;stroke-linejoin:round;stroke-miterlimit:2;">
    <g id="Image">
    </g>
    <g id="path1" transform="matrix(0.979775,0,0,0.979775,-127.506,-45.3445)">
        <path d="M258.691,2020.72C258.897,2001.63 267.039,1983.8 272.568,1965.97C278.803,1945.86 284.851,1925.68 290.729,1905.47C292.708,1898.66 293.859,1891.61 296.138,1884.89C305.042,1858.65 316.779,1833.42 325.564,1807.14C335.671,1776.91 338.167,1759.06 348.754,1728.97C352.488,1718.35 357.635,1708.28 361.681,1697.78C369.797,1676.72 388.608,1601.88 390.778,1595.87C397.888,1576.16 408.038,1557.65 415.185,1537.96C434.293,1485.31 450.164,1434.62 466.068,1380.93C470.665,1365.41 454.912,1352.03 448.191,1340.62C443.707,1333 440.062,1324.9 436.425,1316.85C422.42,1285.81 411.991,1251.94 414.48,1217.47C417.067,1181.66 433.734,1149.01 438.23,1113.56C444.719,1062.39 440.592,1010.41 430.735,959.966C423.795,924.457 411.227,882.866 375.899,865.739C369.69,862.73 363.723,869.461 361.495,874.264C357.446,882.992 357.067,892.75 355.148,901.966C353.16,911.515 351.05,921.042 348.66,930.497C346.793,937.881 344.932,945.289 342.382,952.465C334.65,974.229 323.222,996.429 299.581,1003.78C291.067,1006.42 279.641,1009.38 271.549,1003.36C239.274,979.339 238.763,935.224 231.699,899.466C201.464,746.406 192.761,703.263 156.668,551.466C151.844,531.177 145.575,511.251 140.736,490.966C138.85,483.059 138.471,474.837 136.508,466.949C135.383,462.431 132.87,458.359 131.511,453.906C128.446,443.863 130.901,432.909 135.061,423.583C144.498,402.425 163.761,387.797 180.919,373.432C193.988,362.49 207.596,352.198 220.567,341.141C252.195,314.182 283.621,286.982 314.702,259.394C337.005,239.597 358.879,219.322 380.704,198.999C402.533,178.673 423.728,157.671 445.658,137.453C470.336,114.701 503.576,90.454 539.38,97.261C559.083,101.007 576.878,112.156 590.452,126.689C593.004,129.423 594.254,134.048 597.355,136.391C597.814,136.739 597.511,135.246 597.677,134.694C597.95,133.786 598.059,132.754 598.668,132.028C599.758,130.73 601.136,129.652 602.611,128.817C609.998,124.632 617.496,120.625 625.178,117.011C650.953,104.886 675.629,94.484 702.964,86.311C774.819,64.825 849.485,53.893 924.248,49.677C1028.18,43.817 1133.61,43.673 1236.03,64.546C1265.08,70.465 1290.51,76.64 1318.58,86.256C1327.55,89.327 1336.31,92.995 1344.88,97.039C1358.24,103.341 1370.53,113.72 1385.74,115.598C1392.64,116.449 1395.1,107.833 1398.66,104.194C1401.51,101.285 1404.8,98.818 1408.18,96.539C1426.98,83.843 1450.39,73.723 1473.5,79.64C1482.36,81.907 1498.4,90.816 1505.86,95.855C1534.03,114.858 1540.34,121.049 1566.68,142.433C1597.34,167.322 1628.04,192.156 1658.68,217.068C1734.85,279.004 1811.17,340.767 1887.13,402.976C1896.18,410.388 1904.56,418.6 1913.68,425.924C1922.63,433.111 1936.11,438.334 1939.76,450.647C1943.57,463.539 1935.5,476.208 1930.72,487.321C1925.49,499.497 1920,511.569 1915.14,523.902C1896.42,571.457 1878.79,619.44 1859.99,666.966C1832.19,737.259 1829.91,736.169 1801.54,806.224C1789.87,835.047 1781.5,860.644 1771.79,890.162C1762.51,918.361 1753.34,946.597 1744.17,974.831C1737.56,995.203 1732.95,1018.65 1716.76,1034.31C1708.62,1042.17 1699.45,1046.43 1688.79,1049.71C1684.86,1050.92 1680.8,1051.87 1676.69,1052.06C1640.23,1053.74 1622.76,1014.16 1609.63,986.966C1606.5,980.483 1602.46,969.915 1598.03,964.096C1597.06,962.834 1595.34,965.792 1593.97,966.596C1589.48,969.239 1584.78,971.535 1580.16,973.966C1568.78,979.963 1548.29,986.579 1547.42,1002.92C1546.21,1025.53 1544.95,1048.88 1550.92,1071.05C1554.94,1085.97 1560.58,1100.44 1564.18,1115.47C1571.21,1144.83 1573.26,1175.25 1580.27,1204.62C1586.74,1231.72 1596.26,1251.68 1604.45,1278.22C1606.77,1285.72 1608.01,1293.52 1610.07,1301.1C1612.38,1309.56 1615.07,1313.76 1616.26,1322.54C1618.92,1342.08 1616.04,1342.5 1620.78,1361.8C1626.69,1385.89 1631.74,1393.79 1639.13,1417.39C1643.65,1431.81 1647.66,1446.4 1651.69,1460.97C1663.85,1504.9 1684.72,1585.38 1698.29,1628.93C1710.83,1669.2 1724.91,1708.97 1738,1749.06C1763.83,1828.25 1780.5,1879.8 1803.16,1959.97C1807.79,1976.35 1811.34,1993.02 1815.68,2009.48C1816.38,2012.1 1818.29,2014.48 1818.28,2017.19C1818.27,2018.34 1816.74,2019.05 1815.65,2019.43C1813.13,2020.31 1810.45,2020.74 1807.79,2020.84C1786.37,2021.64 1764.93,2022.03 1743.5,2022.11C1685.42,2022.32 1569.06,2079.79 1569.27,2021.71C1569.98,1821.73 1462.57,1851.94 1451.19,1742.58C1446.33,1695.86 1406.48,1689.23 1363.92,1695.22C1344.31,1697.98 1331.52,1711.16 1317.62,1724.26C1275.56,1763.89 1280.4,1791.18 1274.34,1813.16C1266.01,1843.36 1258.51,1874.32 1258.38,1905.84C1258.28,1928.63 1272.23,1953.76 1275.64,1975.13C1278.17,1990.99 1279.43,2015.05 1275.37,2017.94C1272.85,2019.73 1270.15,2021.42 1267.19,2022.31C1264.21,2023.22 1261,2023.43 1257.89,2023.24C1230.05,2021.54 1224.88,1987.51 1220.36,1966.33C1218.2,1956.22 1215.75,1946.15 1213.98,1935.96C1212.2,1925.77 1210.38,1915.54 1209.73,1905.21C1207,1862.21 1217.91,1819.77 1226.61,1778.14C1232.02,1752.28 1236.01,1724.32 1251.63,1702.03C1253.74,1699.02 1256.71,1696.67 1259.61,1694.41C1276.13,1681.57 1292.87,1669 1309.84,1656.76C1323.67,1646.78 1340.77,1642.64 1357.22,1639.6C1408.11,1630.19 1464.49,1650.55 1494.73,1693.23C1504.92,1707.61 1506.67,1726 1508.86,1742.82C1509.64,1748.81 1507.98,1757.38 1513.9,1761.67C1522.09,1767.61 1532.85,1766.1 1542.12,1768.05C1697.72,1800.76 1641.39,1607.36 1531.81,1445.14C1524.81,1434.78 1511.3,1459.44 1501.27,1466.9C1476.96,1484.97 1475.74,1488.32 1450.44,1505.07C1421.36,1524.33 1388.61,1537.2 1356.18,1549.5C1348.03,1552.59 1328.01,1558.23 1319.32,1559.3C1304.63,1561.13 1237.44,1592.15 1056.06,1543.67C1039.24,1539.17 1015.1,1529.44 999.18,1522.44C985.025,1516.22 971.038,1509.62 957.059,1503.01C953.09,1501.13 950.25,1498.26 945.499,1498.3C940.658,1498.34 934.126,1501.4 929.729,1502.95C912.254,1509.09 902.885,1512.82 884.579,1516.12C852.519,1521.88 831.098,1523.69 798.68,1526.48C774.59,1528.56 753.425,1530.48 729.204,1529.28C688.364,1527.25 649.087,1514.41 611.265,1499.76C601.17,1495.85 591.01,1492.06 581.18,1487.53C576.415,1485.33 566.321,1477.53 559.376,1476.62C547.394,1475.06 532.564,1495.73 532.236,1499.58C532.152,1500.56 415.138,1725.33 520.465,1689.5C550.579,1679.25 650.266,1674.1 668.66,1690.92C675.87,1697.51 685.421,1699.5 692.95,1704.97C697.56,1708.32 701.649,1712.44 705.224,1716.88C719.656,1734.79 722.863,1758.84 730.131,1779.78C737.356,1800.59 752.637,1817.52 758.635,1838.88C762.463,1852.51 764.031,1867.26 765.058,1881.31C767.544,1915.33 768.516,1951.02 755.689,1983.34C752.496,1991.38 747.935,1998.82 743.886,2006.47C740.545,2012.78 736.776,2021.78 728.551,2023.2C721.773,2024.37 716.295,2022.99 709.605,2022.31C704.56,2021.79 699.498,2021.46 694.453,2020.95C692.634,2020.76 688.923,2020.48 687.679,2018.62C686.736,2017.21 653.605,2023.8 676.446,1998.51C685.089,1988.94 694.041,1983.55 700.518,1972.47C704.513,1965.63 706.575,1956.26 708.846,1948.82C710.254,1944.2 712.655,1939.81 713.217,1935.02C714.79,1921.62 713.187,1894.36 711.952,1881.02C710.91,1869.77 708.605,1854.17 704.557,1843.51C699.918,1831.28 692.867,1821.95 685.252,1811.53C678.887,1802.81 654.367,1737.51 637.229,1746.39C543.58,1794.94 566.156,2020.05 561.611,2021.63C557.953,2022.91 550.135,2021.55 546.492,2021.47C521.983,2020.93 497.473,2020.34 472.958,2020.3C456.799,2020.27 440.625,2020.35 424.49,2021.25C410.355,2022.03 396.208,2023.19 382.215,2025.34C372.25,2026.87 362.579,2029.92 352.775,2032.27C342.964,2034.62 333.231,2037.3 323.373,2039.44C317.553,2040.71 311.681,2041.78 305.765,2042.47C289.688,2044.35 258.439,2044.08 258.693,2020.72L258.691,2020.72ZM1223.09,1506.4C1248.16,1503.16 1272.1,1494.32 1295.69,1485.76C1319.04,1477.29 1342.45,1465.92 1358.78,1446.55C1369.48,1433.86 1508.87,1345.39 1377.68,1096.47C1376.17,1093.61 1374.76,1090.69 1373.11,1087.9C1367.17,1077.91 1360.72,1068.23 1354.93,1058.14C1348.72,1047.32 1285.02,982.531 1260.26,960.574C1203.41,910.181 1142.66,855.313 1119.97,780.032C1106.93,736.769 1104.69,691.115 1102.84,646.319C1101.13,604.604 1099.69,562.867 1099.29,521.118C1098.71,461.642 1104.27,401.842 1097.89,342.468C1096.3,327.662 1094.26,312.869 1091.18,298.299C1084.91,268.636 1064.21,235.152 1029.86,236.987C999.882,238.588 984.407,271.167 971.979,293.663C959.777,315.749 950.579,330.855 941.791,354.632C918.3,418.186 906.381,485.4 900.488,552.704C895.221,612.864 897.236,612.862 893.66,673.116C890.824,720.889 885.853,775.031 854.052,813.694C826.196,847.559 791.709,872.851 758.223,900.897C730.7,923.949 703.894,947.202 677.956,972.042C605.996,1040.96 519.536,1123.25 520.376,1231.13C520.5,1247.09 521.848,1264.34 525.088,1280C529.037,1299.08 533.866,1314.19 542.725,1331.59C552.866,1351.51 564.232,1368.47 579.034,1385.23C594.802,1403.1 612.423,1418.65 631.378,1433.03C648.578,1446.07 666.886,1457.6 686.304,1467.07C696.194,1471.89 706.772,1475.21 716.678,1479.99C741.746,1492.11 764.715,1457.02 773.178,1448.09C794.138,1425.96 815.465,1404.19 837.002,1382.62C857.004,1362.6 870.161,1351.19 892.687,1334.06C897.217,1330.61 901.915,1329.89 906.011,1325.75C907.471,1324.27 905.285,1322.51 904.518,1321.9C902.871,1320.59 901.015,1319.54 899.417,1318.16C894.483,1313.91 889.44,1309.76 884.944,1305.05C869.082,1288.44 862.254,1279.21 850.88,1259.27C845.683,1250.15 840.05,1236.01 837.244,1225.92C834.255,1215.17 831.705,1200.36 831.788,1189.15C831.82,1184.71 832.605,1180.28 833.598,1175.95C839.035,1152.25 867.512,1147.72 887.481,1144.6C894.23,1143.54 901.02,1142.76 907.782,1141.79C918.986,1140.19 930.116,1138 941.38,1136.89C969.404,1134.13 997.943,1132.76 1025.9,1137.11C1060.55,1142.5 1098.4,1152.42 1121.42,1181.02C1137.16,1200.58 1133.52,1229.83 1122.8,1249.54C1091.54,1307.01 1048.05,1323.9 1027.68,1333.09C1020.07,1336.53 1014.45,1337.1 1007.78,1342.52C1006.73,1343.38 1008.5,1346.42 1008.88,1346.92C1010.89,1349.62 1013.19,1352.09 1015.21,1354.79C1021.56,1363.27 1027.48,1372.06 1033.96,1380.44C1044.77,1394.41 1055.48,1408.5 1067.07,1421.83C1105.75,1466.32 1159.07,1514.66 1223.09,1506.4L1223.09,1506.4ZM1350.18,872.906C1363.22,869.572 1378.39,866.894 1388.95,857.514C1428.94,821.979 1448.63,760.026 1417.14,712.994C1413.6,707.701 1403.81,698.028 1398.7,694.398C1384.69,684.457 1376.45,679.079 1360.9,674.402C1340.97,668.404 1320.49,668.697 1300.22,672.812C1270.72,678.801 1255.26,709.93 1247.67,735.969C1236.23,775.261 1247.17,820.273 1276.63,848.991C1295.7,867.586 1323.33,879.768 1350.18,872.906ZM1333.18,832.523C1283.96,822.936 1271.72,756.914 1299.28,721.37C1314.47,701.776 1345.99,703.342 1367.26,708.359C1375.12,710.213 1385.74,714.407 1392.27,719.311C1424.32,743.405 1421.51,795.391 1395.54,821.657C1384.82,832.496 1348.28,835.466 1333.18,832.523ZM648.959,861.878C660.433,859.405 669.131,855.586 679.076,849.418C733.829,815.456 727.571,730.369 685.406,688.987C663.223,667.215 631.314,661.099 601.295,665.829C554.375,673.223 524.742,719.212 530.439,765.322C537.451,822.081 588.416,874.924 648.959,861.878ZM622.059,827.966C595.761,824.113 569.793,806.425 564.542,779.162C556.894,739.447 596.511,691.449 638.238,696.502C689.864,702.754 721.857,773.141 679.964,810.829C672.834,817.243 663.811,822.189 654.661,824.997C643.945,828.284 633.224,829.602 622.059,827.966Z" style="fill:url(#_Linear1);fill-rule:nonzero;"/>
    </g>
    <defs>
        <linearGradient id="_Linear1" x1="0" y1="0" x2="1" y2="0" gradientUnits="userSpaceOnUse" gradientTransform="matrix(42.8427,1996.97,-1996.97,42.8427,807.992,127.821)"><stop offset="0" style="stop-color:rgb(71,0,255);stop-opacity:1"/><stop offset="1" style="stop-color:rgb(77,77,77);stop-opacity:1"/></linearGradient>
    </defs>
</svg>
